<svg width="400" height="400" viewBox="0 0 400 400" fill="none" xmlns="http://www.w3.org/2000/svg">
<path fill-rule="evenodd" clip-rule="evenodd" d="M197.533 0.397992C197.457 0.625992 193.983 0.966992 189.4 1.19599C178.227 1.75399 170.414 2.65699 162 4.36099C161.01 4.56199 159.21 4.92099 158 5.15799C155.898 5.57199 152.445 6.37399 149 7.25099C148.12 7.47499 146.813 7.75499 146.096 7.87299C145.379 7.99199 144.694 8.24899 144.573 8.44399C144.452 8.63999 143.834 8.79999 143.2 8.79999C142.566 8.79999 141.936 8.97999 141.8 9.19999C141.664 9.41999 141.124 9.59999 140.6 9.59999C140.076 9.59999 139.536 9.77999 139.4 9.99999C139.264 10.22 138.724 10.4 138.2 10.4C137.676 10.4 137.136 10.58 137 10.8C136.864 11.02 136.324 11.2 135.8 11.2C135.276 11.2 134.736 11.38 134.6 11.6C134.464 11.82 133.913 12 133.376 12C132.839 12 132.4 12.18 132.4 12.4C132.4 12.62 132.038 12.8 131.595 12.8C131.152 12.8 130.477 12.959 130.095 13.153C129.713 13.348 128.86 13.729 128.2 14C127.54 14.271 126.687 14.652 126.305 14.847C125.923 15.041 125.338 15.2 125.005 15.2C124.672 15.2 124.4 15.38 124.4 15.6C124.4 15.82 124.057 16 123.638 16C123.219 16 122.184 16.343 121.338 16.761C120.492 17.18 118.72 18.01 117.4 18.605C113.695 20.276 105.024 24.527 104.8 24.783C104.69 24.908 103.7 25.456 102.6 26C101.5 26.544 100.51 27.082 100.4 27.195C100.018 27.587 97.796 28.851 97.1 29.071C96.715 29.193 96.4 29.452 96.4 29.647C96.4 29.841 96.164 30 95.875 30C95.587 30 94.964 30.36 94.492 30.8C94.02 31.24 93.517 31.6 93.375 31.6C93.017 31.6 82.059 39.114 81.061 40.044C80.614 40.46 80.101 40.8 79.921 40.8C79.74 40.8 79.028 41.34 78.337 42C77.646 42.66 76.922 43.2 76.727 43.2C76.533 43.2 75.774 43.785 75.042 44.5C74.31 45.215 72.961 46.406 72.045 47.146C66.113 51.939 56.607 61.085 51.854 66.572C50.724 67.876 48.935 69.946 47.877 71.172C46.82 72.397 45.335 74.078 44.577 74.907C43.82 75.735 43.2 76.564 43.2 76.747C43.2 76.931 42.702 77.603 42.094 78.241C41.486 78.878 39.382 81.74 37.418 84.6C35.454 87.46 33.701 89.86 33.523 89.933C33.346 90.007 33.2 90.242 33.2 90.455C33.2 90.669 32.48 91.904 31.6 93.2C30.72 94.496 30 95.746 30 95.978C30 96.21 29.841 96.4 29.647 96.4C29.452 96.4 29.193 96.715 29.071 97.1C28.854 97.787 27.595 100.006 27.199 100.4C27.089 100.51 26.729 101.14 26.4 101.8C26.071 102.46 25.704 103.09 25.586 103.2C25.467 103.31 24.141 105.92 22.64 109C21.139 112.08 19.571 115.292 19.155 116.138C18.74 116.984 18.4 117.929 18.4 118.238C18.4 118.547 18.22 118.8 18 118.8C17.78 118.8 17.6 119.072 17.6 119.405C17.6 119.738 17.42 120.368 17.2 120.805C16.98 121.242 16.62 121.958 16.4 122.395C16.18 122.832 16 123.462 16 123.795C16 124.128 15.853 124.4 15.672 124.4C15.492 124.4 15.1 125.3 14.8 126.4C14.5 127.5 14.108 128.4 13.928 128.4C13.747 128.4 13.6 128.839 13.6 129.376C13.6 129.913 13.42 130.464 13.2 130.6C12.98 130.736 12.8 131.287 12.8 131.824C12.8 132.361 12.62 132.8 12.4 132.8C12.18 132.8 12 133.239 12 133.776C12 134.313 11.82 134.864 11.6 135C11.38 135.136 11.2 135.687 11.2 136.224C11.2 136.761 11.02 137.2 10.8 137.2C10.58 137.2 10.4 137.729 10.4 138.376C10.4 139.023 10.22 139.664 9.99999 139.8C9.77999 139.936 9.59999 140.577 9.59999 141.224C9.59999 141.871 9.41999 142.4 9.19999 142.4C8.97999 142.4 8.79999 142.929 8.79999 143.576C8.79999 144.223 8.63999 144.852 8.44399 144.973C8.24899 145.094 7.99199 145.779 7.87299 146.496C7.75499 147.213 7.48299 148.52 7.26999 149.4C5.83199 155.338 4.16999 163.473 3.55399 167.6C1.71899 179.878 1.48799 183.456 1.47599 199.8C1.46499 216.239 1.70699 220.045 3.55399 232.4C4.14799 236.379 6.13099 246.124 7.25599 250.6C7.47699 251.48 7.75499 252.787 7.87299 253.504C7.99199 254.221 8.24899 254.906 8.44399 255.027C8.63999 255.148 8.79999 255.777 8.79999 256.424C8.79999 257.071 8.97999 257.6 9.19999 257.6C9.41999 257.6 9.59999 258.129 9.59999 258.776C9.59999 259.423 9.77999 260.064 9.99999 260.2C10.22 260.336 10.4 260.889 10.4 261.429C10.4 261.969 10.58 262.768 10.8 263.205C11.02 263.642 11.38 264.358 11.6 264.795C11.82 265.232 12 265.864 12 266.2C12 266.536 12.18 267.168 12.4 267.605C12.62 268.042 12.98 268.758 13.2 269.195C13.42 269.632 13.6 270.264 13.6 270.6C13.6 270.936 13.78 271.568 14 272.005C14.22 272.442 14.58 273.158 14.8 273.595C15.02 274.032 15.2 274.662 15.2 274.995C15.2 275.328 15.38 275.6 15.6 275.6C15.82 275.6 16 275.872 16 276.205C16 276.538 16.159 277.123 16.353 277.505C16.548 277.887 16.885 278.65 17.103 279.2C18.191 281.949 25.168 296.449 25.572 296.8C25.698 296.91 26.071 297.54 26.4 298.2C26.729 298.86 27.089 299.49 27.199 299.6C27.31 299.71 27.625 300.205 27.9 300.7C28.175 301.195 28.625 302.005 28.9 302.5C29.175 302.995 29.49 303.49 29.6 303.6C29.71 303.71 30.025 304.205 30.3 304.7C31.541 306.935 31.843 307.408 32.5 308.155C32.885 308.593 33.2 309.187 33.2 309.475C33.2 309.764 33.35 310 33.532 310C33.715 310 34.12 310.495 34.432 311.1C34.744 311.705 35.101 312.29 35.225 312.4C35.349 312.51 36.692 314.4 38.207 316.6C39.723 318.8 41.287 320.891 41.682 321.247C42.077 321.603 42.4 322.098 42.4 322.347C42.4 322.596 42.58 322.8 42.8 322.8C43.02 322.8 43.2 322.998 43.2 323.24C43.2 323.481 43.74 324.183 44.4 324.8C45.06 325.417 45.602 326.074 45.604 326.26C45.607 326.447 46.372 327.437 47.304 328.46C48.237 329.483 50.26 331.724 51.8 333.44C55.394 337.443 63.468 345.51 66.975 348.6C68.473 349.92 70.262 351.52 70.949 352.155C71.637 352.79 72.83 353.778 73.6 354.351C74.37 354.923 75.27 355.672 75.6 356.015C75.93 356.357 76.83 357.071 77.6 357.6C78.37 358.129 79.291 358.886 79.647 359.281C80.003 359.676 80.464 360 80.671 360C80.879 360 81.401 360.315 81.831 360.7C82.262 361.085 83.691 362.119 85.007 362.998C86.323 363.877 87.638 364.822 87.929 365.098C88.219 365.374 88.596 365.6 88.766 365.6C88.936 365.6 89.599 366.05 90.238 366.6C90.877 367.149 91.625 367.599 91.9 367.6C92.175 367.6 92.4 367.78 92.4 368C92.4 368.22 92.636 368.4 92.925 368.4C93.213 368.4 93.807 368.715 94.245 369.1C94.992 369.757 95.465 370.059 97.7 371.3C98.195 371.575 98.69 371.89 98.8 372.001C98.91 372.111 99.54 372.471 100.2 372.8C100.86 373.129 101.49 373.489 101.6 373.599C101.97 373.971 104.188 375.219 105.7 375.906C106.525 376.282 107.2 376.726 107.2 376.894C107.2 377.062 107.426 377.2 107.702 377.2C107.978 377.2 109.733 377.935 111.602 378.834C118.117 381.967 123.227 384.258 125.8 385.2C127.646 385.876 130.731 387.157 131.695 387.647C132.077 387.841 132.741 388 133.171 388C133.601 388 134.064 388.18 134.2 388.4C134.336 388.62 134.876 388.8 135.4 388.8C135.924 388.8 136.464 388.98 136.6 389.2C136.736 389.42 137.276 389.6 137.8 389.6C138.324 389.6 138.864 389.78 139 390C139.136 390.22 139.676 390.4 140.2 390.4C140.724 390.4 141.264 390.58 141.4 390.8C141.536 391.02 142.177 391.2 142.824 391.2C143.471 391.2 144 391.38 144 391.6C144 391.82 144.619 392 145.376 392C146.133 392 146.864 392.18 147 392.4C147.136 392.62 147.766 392.8 148.4 392.8C149.034 392.8 149.649 392.956 149.767 393.147C149.885 393.338 150.751 393.592 151.691 393.711C152.631 393.831 155.65 394.412 158.4 395.003C168.226 397.114 176.673 398.18 188.597 398.811C192.996 399.044 196.767 399.407 196.977 399.617C197.481 400.121 201.446 400.111 202.393 399.604C202.801 399.386 206.704 399.022 211.067 398.796C219.04 398.382 224.15 397.929 228.6 397.241C229.92 397.037 232.26 396.682 233.8 396.452C235.34 396.221 238.85 395.551 241.6 394.962C244.35 394.372 247.276 393.806 248.103 393.703C248.929 393.6 249.705 393.355 249.826 393.158C249.948 392.961 250.667 392.8 251.424 392.8C252.181 392.8 252.8 392.62 252.8 392.4C252.8 392.18 253.329 392 253.976 392C254.623 392 255.264 391.82 255.4 391.6C255.536 391.38 256.267 391.2 257.024 391.2C257.781 391.2 258.4 391.02 258.4 390.8C258.4 390.58 258.94 390.4 259.6 390.4C260.26 390.4 260.8 390.22 260.8 390C260.8 389.78 261.34 389.6 262 389.6C262.66 389.6 263.2 389.42 263.2 389.2C263.2 388.98 263.639 388.8 264.176 388.8C264.713 388.8 265.264 388.62 265.4 388.4C265.536 388.18 265.999 388 266.429 388C266.859 388 267.523 387.841 267.905 387.647C268.287 387.452 269.14 387.071 269.8 386.8C270.46 386.529 271.313 386.148 271.695 385.953C272.077 385.759 272.752 385.6 273.195 385.6C273.638 385.6 274 385.42 274 385.2C274 384.98 274.272 384.8 274.605 384.8C274.938 384.8 275.523 384.64 275.905 384.444C276.738 384.017 280.277 382.428 281.4 381.978C283.843 380.997 295.021 375.435 295.133 375.144C295.207 374.955 295.612 374.8 296.033 374.8C296.455 374.8 296.8 374.62 296.8 374.4C296.8 374.18 297.07 374 297.4 374C297.73 374 298 373.841 298 373.647C298 373.452 298.315 373.193 298.7 373.071C299.385 372.854 301.604 371.596 302 371.2C302.396 370.804 304.615 369.546 305.3 369.329C305.685 369.207 306 368.97 306 368.802C306 368.634 306.54 368.273 307.2 368C307.86 367.727 308.4 367.357 308.4 367.178C308.4 367 308.759 366.74 309.198 366.601C309.636 366.462 310.221 366.129 310.498 365.862C310.774 365.595 312.08 364.66 313.4 363.785C316.097 361.997 318.617 360.145 319.775 359.1C320.202 358.715 320.721 358.4 320.929 358.4C321.136 358.4 321.597 358.076 321.953 357.681C322.309 357.286 323.23 356.524 324 355.988C324.77 355.452 325.961 354.47 326.647 353.807C327.333 353.143 328.323 352.253 328.847 351.829C333.327 348.207 341.985 340.152 343.965 337.764C344.792 336.767 347.884 333.266 352.968 327.571C353.67 326.786 354.675 325.526 355.203 324.771C355.73 324.017 356.449 323.13 356.8 322.8C357.151 322.47 357.871 321.57 358.4 320.8C358.929 320.03 359.46 319.31 359.581 319.2C359.824 318.978 360.129 318.542 364.532 312.134C366.219 309.677 367.6 307.472 367.6 307.234C367.6 306.995 367.78 306.8 368 306.8C368.22 306.8 368.4 306.564 368.4 306.275C368.4 305.987 368.725 305.402 369.122 304.975C369.52 304.549 370.103 303.615 370.42 302.9C370.736 302.185 371.131 301.6 371.298 301.6C371.464 301.6 371.6 301.33 371.6 301C371.6 300.67 371.746 300.4 371.925 300.4C372.104 300.4 372.498 299.77 372.8 299C373.102 298.23 373.496 297.6 373.675 297.6C373.854 297.6 374 297.24 374 296.8C374 296.36 374.135 295.999 374.3 295.997C374.465 295.995 374.805 295.59 375.056 295.097C378.726 287.877 380.923 283.137 384.234 275.3C384.582 274.475 385.032 273.487 385.234 273.105C385.435 272.723 385.6 272.048 385.6 271.605C385.6 271.162 385.78 270.8 386 270.8C386.22 270.8 386.4 270.438 386.4 269.995C386.4 269.552 386.58 268.832 386.8 268.395C387.02 267.958 387.38 267.242 387.6 266.805C387.82 266.368 388 265.736 388 265.4C388 265.064 388.18 264.432 388.4 263.995C388.62 263.558 388.98 262.842 389.2 262.405C389.42 261.968 389.6 261.169 389.6 260.629C389.6 260.089 389.78 259.536 390 259.4C390.22 259.264 390.4 258.724 390.4 258.2C390.4 257.676 390.58 257.136 390.8 257C391.02 256.864 391.2 256.223 391.2 255.576C391.2 254.929 391.38 254.4 391.6 254.4C391.82 254.4 392 253.781 392 253.024C392 252.267 392.18 251.536 392.4 251.4C392.62 251.264 392.8 250.544 392.8 249.8C392.8 249.056 392.961 248.348 393.158 248.226C393.355 248.105 393.603 247.329 393.709 246.503C393.816 245.676 394.391 242.66 394.987 239.8C396.035 234.774 396.412 232.551 397.224 226.6C400.099 205.535 398.702 170.661 394.702 163.611C393.388 161.295 391.013 158.8 390.122 158.8C389.835 158.8 389.6 158.664 389.6 158.498C389.6 158.201 388.584 157.717 386.2 156.88C385.54 156.648 381.76 156.368 377.8 156.257C369.942 156.037 365.365 155.245 360.2 153.213C358.308 152.468 353.789 150.178 353.667 149.902C353.593 149.736 353.356 149.6 353.139 149.6C352.656 149.6 349.052 147.173 348.867 146.723C348.793 146.545 348.55 146.4 348.325 146.4C347.743 146.4 340.25 138.747 339.366 137.25C338.96 136.562 338.486 136 338.314 136C338.141 136 338 135.745 338 135.433C338 135.122 337.865 134.807 337.7 134.733C337.316 134.563 336.384 132.949 334.54 129.267C332.605 125.401 330.074 122.785 326.8 121.268C324.166 120.047 323.085 119.77 319.293 119.339C318.134 119.207 317.088 118.942 316.969 118.75C316.85 118.557 316.144 118.4 315.4 118.4C314.656 118.4 313.936 118.22 313.8 118C313.664 117.78 313.201 117.6 312.771 117.6C312.341 117.6 311.587 117.392 311.095 117.138C309.218 116.167 308.793 116 308.205 116C307.872 116 307.6 115.82 307.6 115.6C307.6 115.38 307.24 115.2 306.8 115.2C306.36 115.2 306 115.02 306 114.8C306 114.58 305.64 114.4 305.2 114.4C304.76 114.4 304.4 114.241 304.4 114.047C304.4 113.852 304.085 113.593 303.7 113.471C302.97 113.24 300.746 111.963 300.4 111.577C300.29 111.454 299.821 111.094 299.357 110.777C297.889 109.772 294.29 106.644 293.225 105.448C292.661 104.815 291.75 103.798 291.2 103.188C289.395 101.188 288.8 100.397 288.8 99.995C288.8 99.778 288.65 99.6 288.468 99.6C288.285 99.6 287.88 99.105 287.568 98.5C287.256 97.895 286.896 97.31 286.768 97.2C286.639 97.09 285.762 95.38 284.818 93.4C283.874 91.42 282.944 89.487 282.751 89.105C282.558 88.723 282.4 88.059 282.4 87.629C282.4 87.199 282.24 86.748 282.044 86.627C281.849 86.506 281.574 85.731 281.433 84.904C281.197 83.508 280.905 81.822 280.202 77.8C279.216 72.154 276.225 68.194 271 65.616C269.46 64.857 267.448 63.732 266.528 63.117C265.608 62.503 264.755 62 264.633 62C264.41 62 263.182 61.048 262.184 60.1C261.894 59.825 261.55 59.6 261.419 59.6C260.875 59.6 253.613 52.044 252.385 50.2C251.652 49.1 250.951 48.11 250.826 48C250.506 47.717 249.591 46.101 248.562 44C244.875 36.472 243.6 30.556 243.6 20.979C243.6 17.056 243.44 14.348 243.2 14.2C242.98 14.064 242.8 13.513 242.8 12.976C242.8 12.439 242.62 12 242.4 12C242.18 12 242 11.64 242 11.2C242 10.76 241.85 10.4 241.668 10.4C241.485 10.4 241.081 9.90499 240.77 9.29999C239.452 6.73199 235.973 4.49099 231.4 3.26299C228.549 2.49799 220.549 1.70599 210.622 1.20599C206.234 0.984992 202.463 0.622992 202.242 0.401992C201.721 -0.119008 197.708 -0.122008 197.533 0.397992ZM218.6 15.964C220.58 16.199 223.37 16.492 224.8 16.613C229.267 16.991 229.2 16.897 229.2 22.844C229.2 25.818 229.367 28.056 229.6 28.2C229.82 28.336 230 29.596 230 31C230 32.404 230.18 33.664 230.4 33.8C230.62 33.936 230.8 34.746 230.8 35.6C230.8 36.454 230.98 37.264 231.2 37.4C231.42 37.536 231.6 38.166 231.6 38.8C231.6 39.434 231.78 40.064 232 40.2C232.22 40.336 232.4 40.876 232.4 41.4C232.4 41.924 232.544 42.442 232.721 42.551C232.897 42.66 233.29 43.661 233.593 44.775C233.896 45.889 234.292 46.8 234.472 46.8C234.653 46.8 234.8 47.048 234.8 47.351C234.8 48.237 238.885 55.665 240.34 57.425C240.534 57.659 240.907 58.253 241.17 58.745C242.122 60.523 249.744 68.45 252.377 70.4C253.119 70.95 253.955 71.625 254.235 71.9C254.514 72.175 254.896 72.4 255.083 72.4C255.27 72.4 255.683 72.76 256 73.2C256.317 73.64 256.773 74 257.013 74C257.253 74 257.807 74.315 258.245 74.7C259.122 75.472 259.93 75.962 263.2 77.71C266.279 79.356 266.8 80.067 266.8 82.621C266.8 83.793 266.98 84.864 267.2 85C267.42 85.136 267.6 85.856 267.6 86.6C267.6 87.344 267.78 88.064 268 88.2C268.22 88.336 268.4 88.966 268.4 89.6C268.4 90.234 268.58 90.864 268.8 91C269.02 91.136 269.2 91.676 269.2 92.2C269.2 92.724 269.38 93.264 269.6 93.4C269.82 93.536 270 93.921 270 94.255C270 95.108 274.455 104.4 274.864 104.4C275.049 104.4 275.2 104.76 275.2 105.2C275.2 105.64 275.35 106 275.532 106C275.715 106 276.119 106.495 276.43 107.1C276.74 107.705 277.274 108.47 277.616 108.8C277.958 109.13 278.643 109.979 279.137 110.687C280.226 112.246 284.13 116.231 287.4 119.121C288.72 120.288 290.298 121.683 290.907 122.221C291.516 122.76 292.281 123.2 292.607 123.2C292.933 123.2 293.2 123.35 293.2 123.532C293.2 123.715 293.695 124.12 294.3 124.432C294.905 124.744 295.49 125.106 295.6 125.236C295.984 125.692 305.078 130 305.656 130C305.977 130 306.411 130.149 306.62 130.33C306.829 130.512 307.81 130.89 308.8 131.169C309.79 131.449 310.913 131.84 311.295 132.039C311.677 132.238 312.406 132.4 312.915 132.4C313.424 132.4 314.011 132.562 314.22 132.759C314.429 132.956 315.41 133.231 316.4 133.369C321.466 134.074 321.045 133.84 322.48 136.74C323.204 138.203 323.887 139.49 323.998 139.6C324.109 139.71 324.425 140.205 324.7 140.7C324.975 141.195 325.425 142.005 325.7 142.5C325.975 142.995 326.29 143.49 326.4 143.6C326.51 143.71 327.228 144.61 327.994 145.6C328.761 146.59 329.661 147.746 329.994 148.169C331.742 150.389 340.149 158.4 340.731 158.4C340.906 158.4 341.398 158.718 341.825 159.106C343.036 160.208 347.879 162.986 351.4 164.598C353.16 165.404 354.913 166.229 355.295 166.431C355.677 166.634 356.341 166.8 356.771 166.8C357.201 166.8 357.664 166.98 357.8 167.2C357.936 167.42 358.476 167.6 359 167.6C359.524 167.6 360.064 167.78 360.2 168C360.336 168.22 360.966 168.4 361.6 168.4C362.234 168.4 362.864 168.58 363 168.8C363.136 169.02 363.946 169.2 364.8 169.2C365.654 169.2 366.464 169.38 366.6 169.6C366.736 169.82 367.881 170 369.144 170C370.407 170 371.614 170.174 371.828 170.388C372.041 170.601 374.642 170.826 377.608 170.888L383 171L383.289 173.6C383.448 175.03 383.794 178 384.059 180.2C384.679 185.362 384.679 213.982 384.059 219.2C383.81 221.29 383.507 224.08 383.386 225.4C383.264 226.72 383.002 228.16 382.803 228.6C382.604 229.04 382.346 230.21 382.229 231.2C381.636 236.21 381.495 237.029 381.161 237.38C380.963 237.589 380.8 238.433 380.8 239.256C380.8 240.079 380.62 240.864 380.4 241C380.18 241.136 380 241.856 380 242.6C380 243.344 379.82 244.064 379.6 244.2C379.38 244.336 379.2 245.056 379.2 245.8C379.2 246.544 379.02 247.264 378.8 247.4C378.58 247.536 378.4 248.166 378.4 248.8C378.4 249.434 378.22 250.064 378 250.2C377.78 250.336 377.6 250.966 377.6 251.6C377.6 252.234 377.42 252.864 377.2 253C376.98 253.136 376.8 253.676 376.8 254.2C376.8 254.724 376.62 255.264 376.4 255.4C376.18 255.536 376 256.177 376 256.824C376 257.471 375.82 258 375.6 258C375.38 258 375.2 258.439 375.2 258.976C375.2 259.513 375.02 260.064 374.8 260.2C374.58 260.336 374.4 260.799 374.4 261.229C374.4 261.659 374.226 262.323 374.013 262.705C373.8 263.087 373.341 264.287 372.993 265.37C372.207 267.825 370.265 272.63 368.956 275.361C368.65 276 368.4 276.765 368.4 277.061C368.4 277.358 368.22 277.6 368 277.6C367.78 277.6 367.6 277.96 367.6 278.4C367.6 278.84 367.42 279.2 367.2 279.2C366.98 279.2 366.801 279.425 366.803 279.7C366.807 280.22 363.602 286.849 363.178 287.2C363.045 287.31 362.681 287.985 362.37 288.7C362.059 289.415 361.669 290 361.502 290C361.336 290 361.2 290.36 361.2 290.8C361.2 291.24 361.02 291.6 360.8 291.6C360.58 291.6 360.4 291.836 360.4 292.125C360.4 292.413 360.04 293.036 359.6 293.508C359.16 293.98 358.8 294.644 358.8 294.983C358.8 295.322 358.62 295.6 358.4 295.6C358.18 295.6 358 295.777 358 295.992C358 296.695 351.351 306.869 350.719 307.133C350.544 307.207 350.4 307.488 350.4 307.758C350.4 308.028 350.08 308.598 349.689 309.025C349.298 309.451 348.542 310.43 348.008 311.2C347.475 311.97 346.714 312.891 346.319 313.247C345.924 313.603 345.6 314.054 345.6 314.249C345.6 314.444 344.88 315.369 344 316.303C343.12 317.237 342.4 318.166 342.4 318.367C342.4 318.569 342.265 318.793 342.1 318.867C341.935 318.94 340.63 320.35 339.2 321.999C335.824 325.895 336.173 325.51 333.343 328.449C328.989 332.969 322.505 338.971 318.45 342.235C317.927 342.656 317.117 343.364 316.65 343.809C316.182 344.253 315.17 345.062 314.4 345.604C313.63 346.147 312.478 347.088 311.841 347.696C311.203 348.303 310.438 348.8 310.141 348.8C309.843 348.8 309.599 348.935 309.597 349.1C309.596 349.265 308.921 349.848 308.097 350.396C307.274 350.944 306.51 351.506 306.4 351.645C305.974 352.183 298.067 357.2 297.646 357.2C297.401 357.2 297.2 357.358 297.2 357.551C297.2 357.745 296.66 358.127 296 358.4C295.34 358.673 294.8 359.055 294.8 359.249C294.8 359.442 294.44 359.6 294 359.6C293.56 359.6 293.2 359.758 293.2 359.951C293.2 360.145 292.66 360.527 292 360.8C291.34 361.073 290.8 361.455 290.8 361.649C290.8 361.842 290.44 362 290 362C289.56 362 289.199 362.135 289.199 362.3C289.198 362.465 288.208 363.05 287 363.6C285.792 364.15 284.802 364.735 284.801 364.9C284.801 365.065 284.44 365.2 284 365.2C283.56 365.2 283.2 365.38 283.2 365.6C283.2 365.82 282.84 366 282.4 366C281.96 366 281.6 366.18 281.6 366.4C281.6 366.62 281.24 366.8 280.8 366.8C280.36 366.8 280 366.98 280 367.2C280 367.42 279.64 367.6 279.2 367.6C278.76 367.6 278.4 367.78 278.4 368C278.4 368.22 278.135 368.4 277.812 368.4C277.489 368.4 276.634 368.73 275.912 369.134C275.19 369.537 272.35 370.724 269.6 371.772C266.85 372.82 264.24 373.828 263.8 374.012C263.36 374.196 262.28 374.561 261.4 374.823C260.52 375.084 259.487 375.456 259.105 375.649C258.723 375.842 258.059 376 257.629 376C257.199 376 256.736 376.18 256.6 376.4C256.464 376.62 255.924 376.8 255.4 376.8C254.876 376.8 254.336 376.98 254.2 377.2C254.064 377.42 253.524 377.6 253 377.6C252.476 377.6 251.936 377.78 251.8 378C251.664 378.22 250.933 378.4 250.176 378.4C249.419 378.4 248.8 378.58 248.8 378.8C248.8 379.02 248.181 379.2 247.424 379.2C246.667 379.2 245.936 379.38 245.8 379.6C245.664 379.82 244.944 380 244.2 380C243.456 380 242.736 380.18 242.6 380.4C242.464 380.62 241.654 380.8 240.8 380.8C239.946 380.8 239.136 380.98 239 381.2C238.864 381.42 237.964 381.6 237 381.6C236.036 381.6 235.136 381.78 235 382C234.864 382.22 233.899 382.4 232.856 382.4C231.813 382.4 230.789 382.564 230.58 382.765C230.371 382.965 229.12 383.238 227.8 383.37C226.48 383.502 223.87 383.791 222 384.012C210.715 385.347 198.646 385.644 187.8 384.853C184.06 384.581 179.74 384.271 178.2 384.164C176.66 384.058 175.04 383.806 174.6 383.603C174.16 383.401 172.81 383.144 171.6 383.031C167.339 382.635 165.396 382.319 165.02 381.961C164.811 381.763 163.877 381.6 162.944 381.6C162.011 381.6 161.136 381.42 161 381.2C160.864 380.98 160.054 380.8 159.2 380.8C158.346 380.8 157.536 380.62 157.4 380.4C157.264 380.18 156.544 380 155.8 380C155.056 380 154.336 379.82 154.2 379.6C154.064 379.38 153.344 379.2 152.6 379.2C151.856 379.2 151.136 379.02 151 378.8C150.864 378.58 150.234 378.4 149.6 378.4C148.966 378.4 148.336 378.22 148.2 378C148.064 377.78 147.434 377.6 146.8 377.6C146.166 377.6 145.536 377.42 145.4 377.2C145.264 376.98 144.724 376.8 144.2 376.8C143.676 376.8 143.136 376.62 143 376.4C142.864 376.18 142.349 376 141.856 376C141.363 376 140.789 375.857 140.58 375.682C140.371 375.507 139.48 375.135 138.6 374.855C137.72 374.576 136.64 374.188 136.2 373.994C135.76 373.799 134.59 373.373 133.6 373.046C131.905 372.487 128.216 371.028 125.3 369.764C124.585 369.454 123.325 368.911 122.5 368.557C119.353 367.208 116.595 365.817 116.467 365.515C116.393 365.342 115.988 365.2 115.567 365.2C115.145 365.2 114.8 365.054 114.8 364.875C114.8 364.696 114.17 364.302 113.4 364C112.63 363.698 112 363.338 112 363.2C112 363.062 111.37 362.702 110.6 362.4C109.83 362.098 109.2 361.704 109.2 361.525C109.2 361.346 108.84 361.2 108.4 361.2C107.96 361.2 107.6 361.02 107.6 360.8C107.6 360.58 107.364 360.4 107.075 360.4C106.787 360.4 106.164 360.04 105.692 359.6C105.22 359.16 104.556 358.8 104.217 358.8C103.878 358.8 103.6 358.62 103.6 358.4C103.6 358.18 103.409 358 103.175 358C102.751 358 92.38 351.348 92 350.833C91.89 350.683 91.17 350.129 90.4 349.6C89.63 349.071 88.91 348.531 88.8 348.4C88.69 348.269 87.97 347.729 87.2 347.2C86.43 346.671 85.509 345.914 85.153 345.519C84.797 345.124 84.379 344.8 84.225 344.8C84.07 344.8 83.708 344.566 83.422 344.279C83.135 343.993 82.136 343.138 81.201 342.379C76.509 338.573 63.612 325.971 60.8 322.445C60.03 321.479 58.857 320.129 58.193 319.445C57.53 318.76 56.548 317.57 56.012 316.8C55.476 316.03 54.751 315.13 54.4 314.8C54.049 314.47 53.329 313.57 52.8 312.8C52.271 312.03 51.738 311.31 51.614 311.2C50.847 310.515 43.6 299.835 43.6 299.389C43.6 299.267 43.24 298.78 42.8 298.308C42.36 297.836 42 297.213 42 296.925C42 296.636 41.82 296.4 41.6 296.4C41.38 296.4 41.2 296.04 41.2 295.6C41.2 295.16 41.041 294.8 40.847 294.8C40.652 294.8 40.393 294.485 40.271 294.1C40.051 293.404 38.787 291.182 38.395 290.8C38.282 290.69 37.744 289.7 37.2 288.6C36.656 287.5 36.117 286.51 36.003 286.4C35.55 285.964 33.2 281.054 33.2 280.544C33.2 280.245 33.02 280 32.8 280C32.58 280 32.4 279.735 32.4 279.412C32.4 279.089 32.077 278.234 31.682 277.512C30.856 276.005 27.505 267.779 26.747 265.4C26.466 264.52 26.093 263.629 25.918 263.42C25.743 263.211 25.6 262.637 25.6 262.144C25.6 261.651 25.42 261.136 25.2 261C24.98 260.864 24.8 260.313 24.8 259.776C24.8 259.239 24.62 258.8 24.4 258.8C24.18 258.8 24 258.271 24 257.624C24 256.977 23.82 256.336 23.6 256.2C23.38 256.064 23.2 255.524 23.2 255C23.2 254.476 23.02 253.936 22.8 253.8C22.58 253.664 22.4 253.034 22.4 252.4C22.4 251.766 22.22 251.136 22 251C21.78 250.864 21.6 250.234 21.6 249.6C21.6 248.966 21.42 248.336 21.2 248.2C20.98 248.064 20.8 247.344 20.8 246.6C20.8 245.856 20.62 245.136 20.4 245C20.18 244.864 20 244.169 20 243.456C20 242.743 19.838 241.989 19.641 241.78C19.444 241.571 19.18 240.68 19.056 239.8C18.501 235.859 18.328 234.95 17.994 234.2C17.799 233.76 17.546 232.5 17.433 231.4C17.321 230.3 17.041 228.14 16.812 226.6C15.419 217.239 14.857 204.471 15.281 191.8C15.602 182.207 15.992 178.268 17.6 168.4C17.833 166.97 18.126 165.08 18.253 164.2C18.379 163.32 18.644 162.429 18.841 162.22C19.038 162.011 19.2 161.077 19.2 160.144C19.2 159.211 19.38 158.336 19.6 158.2C19.82 158.064 20 157.344 20 156.6C20 155.856 20.18 155.136 20.4 155C20.62 154.864 20.8 154.133 20.8 153.376C20.8 152.619 20.98 152 21.2 152C21.42 152 21.6 151.381 21.6 150.624C21.6 149.867 21.78 149.136 22 149C22.22 148.864 22.4 148.324 22.4 147.8C22.4 147.276 22.58 146.736 22.8 146.6C23.02 146.464 23.2 145.834 23.2 145.2C23.2 144.566 23.38 143.936 23.6 143.8C23.82 143.664 24 143.023 24 142.376C24 141.729 24.18 141.2 24.4 141.2C24.62 141.2 24.8 140.761 24.8 140.224C24.8 139.687 24.98 139.136 25.2 139C25.42 138.864 25.6 138.401 25.6 137.971C25.6 137.541 25.759 136.877 25.953 136.495C26.391 135.635 26.711 134.829 28.615 129.8C30.066 125.966 32.35 120.796 34.093 117.4C36.781 112.163 37.43 110.987 37.7 110.867C37.865 110.793 38 110.388 38 109.967C38 109.545 38.159 109.2 38.353 109.2C38.548 109.2 38.807 108.885 38.929 108.5C39.146 107.815 40.404 105.596 40.8 105.2C41.196 104.804 42.454 102.585 42.671 101.9C42.793 101.515 43.052 101.2 43.247 101.2C43.441 101.2 43.6 101 43.6 100.757C43.6 100.239 49.583 91.464 50.071 91.267C50.252 91.193 50.4 90.905 50.4 90.626C50.4 90.347 50.94 89.554 51.6 88.863C52.26 88.172 52.804 87.471 52.809 87.304C52.814 87.137 53.399 86.345 54.109 85.544C54.819 84.743 55.967 83.393 56.66 82.544C60.239 78.161 64.011 74.04 69.034 69.026C74.513 63.555 77.996 60.368 82.547 56.66C83.398 55.967 84.298 55.214 84.547 54.987C84.796 54.76 85.63 54.135 86.4 53.598C87.17 53.062 88.248 52.213 88.796 51.711C89.344 51.21 89.916 50.8 90.067 50.8C90.219 50.8 90.581 50.566 90.871 50.28C91.824 49.344 100.338 43.6 100.774 43.6C101.008 43.6 101.2 43.42 101.2 43.2C101.2 42.98 101.478 42.8 101.817 42.8C102.156 42.8 102.82 42.44 103.292 42C103.764 41.56 104.387 41.2 104.675 41.2C104.964 41.2 105.2 41.02 105.2 40.8C105.2 40.58 105.478 40.4 105.817 40.4C106.156 40.4 106.82 40.04 107.292 39.6C107.764 39.16 108.387 38.8 108.675 38.8C108.964 38.8 109.2 38.62 109.2 38.4C109.2 38.18 109.545 38 109.967 38C110.388 38 110.793 37.864 110.867 37.698C110.94 37.532 112.26 36.768 113.8 36C115.34 35.232 116.66 34.468 116.733 34.302C116.807 34.136 117.212 34 117.633 34C118.055 34 118.4 33.82 118.4 33.6C118.4 33.38 118.628 33.2 118.906 33.2C119.184 33.2 120.545 32.647 121.929 31.972C125.313 30.321 132.876 27.205 133.505 27.202C133.783 27.201 134.368 27.02 134.805 26.8C135.242 26.58 135.958 26.22 136.395 26C136.832 25.78 137.541 25.6 137.971 25.6C138.401 25.6 138.864 25.42 139 25.2C139.136 24.98 139.687 24.8 140.224 24.8C140.761 24.8 141.2 24.62 141.2 24.4C141.2 24.18 141.74 24 142.4 24C143.06 24 143.6 23.82 143.6 23.6C143.6 23.38 144.129 23.2 144.776 23.2C145.423 23.2 146.064 23.02 146.2 22.8C146.336 22.58 146.966 22.4 147.6 22.4C148.234 22.4 148.864 22.22 149 22C149.136 21.78 149.766 21.6 150.4 21.6C151.034 21.6 151.664 21.42 151.8 21.2C151.936 20.98 152.656 20.8 153.4 20.8C154.144 20.8 154.864 20.62 155 20.4C155.136 20.18 155.856 20 156.6 20C157.344 20 158.064 19.82 158.2 19.6C158.336 19.38 159.146 19.2 160 19.2C160.854 19.2 161.664 19.02 161.8 18.8C161.936 18.58 162.811 18.4 163.744 18.4C164.677 18.4 165.611 18.237 165.82 18.037C166.029 17.837 167.1 17.572 168.2 17.448C169.3 17.324 171.55 17.032 173.2 16.8C174.85 16.568 177.856 16.242 179.88 16.076C181.904 15.91 183.695 15.639 183.86 15.474C184.298 15.035 214.367 15.459 218.6 15.964ZM112.8 91.226C112.25 91.388 110.765 91.538 109.5 91.56C108.235 91.582 107.2 91.78 107.2 92C107.2 92.22 106.66 92.4 106 92.4C105.34 92.4 104.8 92.58 104.8 92.8C104.8 93.02 104.35 93.2 103.8 93.2C103.25 93.2 102.8 93.38 102.8 93.6C102.8 93.82 102.44 94 102 94C101.56 94 101.2 94.18 101.2 94.4C101.2 94.62 100.968 94.8 100.685 94.8C100.402 94.8 99.547 95.333 98.785 95.984C98.023 96.635 97.26 97.175 97.089 97.184C96.009 97.24 90.953 103.628 89.637 106.6C86.194 114.373 86.739 125.381 90.857 131.262C91.265 131.846 91.6 132.454 91.6 132.613C91.6 133.123 98.158 139.393 99.3 139.975C99.905 140.283 100.4 140.685 100.4 140.868C100.4 141.05 100.76 141.2 101.2 141.2C101.64 141.2 102 141.38 102 141.6C102 141.82 102.36 142 102.8 142C103.24 142 103.6 142.18 103.6 142.4C103.6 142.62 104.014 142.8 104.52 142.8C105.026 142.8 105.611 142.955 105.82 143.145C107.291 144.483 121.6 144.473 121.6 143.135C121.6 142.951 122.039 142.8 122.576 142.8C123.113 142.8 123.664 142.62 123.8 142.4C123.936 142.18 124.397 142 124.824 142C125.251 142 125.6 141.82 125.6 141.6C125.6 141.38 125.793 141.2 126.028 141.2C127.454 141.2 135.6 133.748 135.6 132.444C135.6 132.236 135.735 132.007 135.9 131.933C136.387 131.717 138.8 126.752 138.8 125.967C138.8 125.571 138.98 125.136 139.2 125C139.42 124.864 139.6 124.054 139.6 123.2C139.6 122.346 139.78 121.536 140 121.4C140.22 121.264 140.4 119.644 140.4 117.8C140.4 115.956 140.22 114.336 140 114.2C139.78 114.064 139.6 113.153 139.6 112.176C139.6 111.199 139.42 110.4 139.2 110.4C138.98 110.4 138.8 109.961 138.8 109.424C138.8 108.887 138.62 108.336 138.4 108.2C138.18 108.064 138 107.603 138 107.176C138 106.749 137.82 106.4 137.6 106.4C137.38 106.4 137.2 106.04 137.2 105.6C137.2 105.16 137.02 104.8 136.8 104.8C136.58 104.8 136.4 104.53 136.4 104.2C136.4 103.87 136.22 103.6 136 103.6C135.78 103.6 135.6 103.422 135.6 103.205C135.6 102.054 129.97 96.516 127.494 95.232C126.892 94.92 126.4 94.515 126.4 94.332C126.4 94.15 126.04 94 125.6 94C125.16 94 124.8 93.82 124.8 93.6C124.8 93.38 124.361 93.2 123.824 93.2C123.287 93.2 122.736 93.02 122.6 92.8C122.464 92.58 121.924 92.4 121.4 92.4C120.876 92.4 120.336 92.22 120.2 92C120.064 91.78 118.985 91.6 117.802 91.6C116.62 91.6 115.235 91.45 114.726 91.266C114.217 91.082 113.35 91.064 112.8 91.226ZM115.8 105.6C115.936 105.82 116.451 106 116.944 106C117.979 106 119.992 106.857 119.997 107.3C119.999 107.465 120.212 107.6 120.472 107.6C121.106 107.6 124.4 111.168 124.4 111.856C124.4 112.155 124.58 112.4 124.8 112.4C125.02 112.4 125.2 112.839 125.2 113.376C125.2 113.913 125.38 114.464 125.6 114.6C126.096 114.906 126.131 120.156 125.644 121.105C125.448 121.487 124.898 122.61 124.423 123.6C123.105 126.343 119.957 129.2 118.252 129.2C117.919 129.2 117.536 129.38 117.4 129.6C117.264 129.82 115.543 130 113.576 130C111.459 130 110 129.837 110 129.6C110 129.38 109.728 129.2 109.395 129.2C108.486 129.2 106.345 127.866 104.84 126.36C103.366 124.886 102.809 123.965 101.65 121.081C101.109 119.735 101.054 115.465 101.566 114.495C101.768 114.113 102.221 113.137 102.573 112.326C103.827 109.438 108.165 106 110.554 106C111.13 106 111.6 105.82 111.6 105.6C111.6 105.38 112.489 105.2 113.576 105.2C114.663 105.2 115.664 105.38 115.8 105.6ZM228.2 129.6C228.064 129.82 227.164 130 226.2 130C225.236 130 224.336 130.18 224.2 130.4C224.064 130.62 223.601 130.8 223.171 130.8C222.741 130.8 222.077 130.961 221.695 131.158C221.313 131.355 219.74 132.116 218.2 132.85C216.66 133.584 215.31 134.289 215.2 134.418C215.09 134.547 214.19 135.214 213.2 135.899C208.297 139.293 202 148.277 202 151.879C202 152.298 201.837 152.811 201.639 153.02C200.842 153.858 200.084 164.244 200.77 164.93C201.007 165.167 201.2 166.123 201.2 167.056C201.2 167.989 201.38 168.864 201.6 169C201.82 169.136 202 169.675 202 170.198C202 171.483 205.649 178.657 207.285 180.588C210.322 184.175 215.891 188.8 217.172 188.8C217.407 188.8 217.6 188.98 217.6 189.2C217.6 189.42 217.949 189.6 218.376 189.6C218.803 189.6 219.264 189.78 219.4 190C219.536 190.22 219.997 190.4 220.424 190.4C220.851 190.4 221.2 190.58 221.2 190.8C221.2 191.02 221.74 191.2 222.4 191.2C223.06 191.2 223.6 191.362 223.6 191.56C223.6 192.368 236.176 193.184 236.935 192.425C237.169 192.191 238.033 192 238.856 192C239.679 192 240.464 191.82 240.6 191.6C240.736 191.38 241.276 191.2 241.8 191.2C242.324 191.2 242.864 191.02 243 190.8C243.136 190.58 243.687 190.4 244.224 190.4C244.761 190.4 245.2 190.254 245.2 190.075C245.2 189.896 245.83 189.502 246.6 189.2C247.37 188.898 248 188.504 248 188.325C248 188.146 248.236 188 248.525 188C248.813 188 249.398 187.685 249.825 187.3C250.252 186.915 251.28 186.093 252.109 185.473C259.388 180.034 263.6 171.035 263.6 160.922C263.6 156.84 263.471 155.984 262.132 151.2C261.512 148.985 259.267 144.315 258.703 144.067C258.537 143.993 258.4 143.689 258.4 143.391C258.4 141.698 249.886 134.527 245.4 132.442C244.3 131.931 243.087 131.352 242.705 131.156C242.323 130.96 241.569 130.8 241.029 130.8C240.489 130.8 239.936 130.62 239.8 130.4C239.664 130.18 238.764 130 237.8 130C236.836 130 235.936 129.82 235.8 129.6C235.664 129.38 233.954 129.2 232 129.2C230.046 129.2 228.336 129.38 228.2 129.6ZM236.847 144.169C237.863 144.478 239.445 145.113 240.363 145.581C241.913 146.372 242.418 146.739 244.625 148.676C245.801 149.708 248 153.028 248 153.772C248 154.117 248.18 154.4 248.4 154.4C248.62 154.4 248.8 154.94 248.8 155.6C248.8 156.26 248.98 156.8 249.2 156.8C249.441 156.8 249.6 158.459 249.6 160.976C249.6 163.329 249.425 165.261 249.2 165.4C248.98 165.536 248.8 165.98 248.8 166.386C248.8 168.465 244.697 174.012 242.03 175.538C238.972 177.287 238.302 177.6 237.611 177.6C237.191 177.6 236.736 177.78 236.6 178C236.461 178.225 234.537 178.4 232.2 178.4C229.863 178.4 227.939 178.225 227.8 178C227.664 177.78 227.22 177.6 226.814 177.6C224.807 177.6 220.003 174.148 217.6 170.98C216.584 169.64 215.496 167.065 214.798 164.344C214.192 161.986 214.777 155.509 215.644 154.973C215.84 154.852 216 154.481 216 154.148C216 153.384 218.182 150.193 219.838 148.536C224.005 144.367 231.315 142.49 236.847 144.169ZM129.6 209.986C129.27 210.207 128.066 210.391 126.924 210.394C125.782 210.397 124.736 210.58 124.6 210.8C124.464 211.02 123.834 211.2 123.2 211.2C122.566 211.2 121.936 211.38 121.8 211.6C121.664 211.82 121.124 212 120.6 212C120.076 212 119.536 212.18 119.4 212.4C119.264 212.62 118.713 212.8 118.176 212.8C117.639 212.8 117.2 212.98 117.2 213.2C117.2 213.42 116.84 213.6 116.4 213.6C115.96 213.6 115.6 213.78 115.6 214C115.6 214.22 115.285 214.404 114.9 214.409C114.515 214.414 113.75 214.77 113.2 215.2C112.65 215.63 111.975 215.986 111.7 215.991C111.425 215.996 111.2 216.18 111.2 216.4C111.2 216.62 110.964 216.8 110.675 216.8C110.387 216.8 109.802 217.12 109.375 217.511C108.949 217.902 107.97 218.652 107.2 219.179C105.436 220.384 100.878 224.952 99.594 226.8C99.059 227.57 98.302 228.549 97.911 228.975C97.52 229.402 97.2 229.972 97.2 230.242C97.2 230.512 97.063 230.793 96.896 230.867C96.414 231.078 93.193 237.725 93.197 238.5C93.199 238.885 93.02 239.2 92.8 239.2C92.58 239.2 92.4 239.74 92.4 240.4C92.4 241.06 92.22 241.6 92 241.6C91.78 241.6 91.6 242.242 91.6 243.026C91.6 243.811 91.403 244.821 91.162 245.27C90.571 246.376 90.576 260.736 91.168 261.328C91.405 261.565 91.6 262.444 91.6 263.28C91.6 264.116 91.78 264.8 92 264.8C92.22 264.8 92.4 265.34 92.4 266C92.4 266.66 92.58 267.2 92.8 267.2C93.02 267.2 93.199 267.515 93.197 267.9C93.193 268.675 96.414 275.322 96.896 275.533C97.063 275.607 97.2 275.888 97.2 276.158C97.2 276.428 97.515 276.998 97.9 277.425C98.285 277.852 99.121 278.897 99.757 279.749C101.351 281.881 106.301 286.837 108 288.002C108.77 288.53 109.49 289.06 109.6 289.181C109.953 289.568 112.177 290.842 112.9 291.071C113.285 291.193 113.6 291.452 113.6 291.647C113.6 291.841 113.96 292 114.4 292C114.84 292 115.2 292.18 115.2 292.4C115.2 292.62 115.524 292.8 115.92 292.8C116.316 292.8 116.811 292.951 117.02 293.137C117.605 293.655 122.708 295.144 126.165 295.806C135.172 297.529 146.936 295.665 154.4 291.331C154.95 291.012 155.715 290.651 156.1 290.529C156.485 290.407 156.8 290.148 156.8 289.953C156.8 289.759 157.043 289.6 157.341 289.6C157.638 289.6 158.446 289.06 159.137 288.4C159.828 287.74 160.529 287.2 160.697 287.2C161.522 287.2 169.979 277.829 169.993 276.9C169.997 276.625 170.18 276.4 170.4 276.4C170.62 276.4 170.8 276.164 170.8 275.875C170.8 275.587 171.16 274.964 171.6 274.492C172.04 274.02 172.4 273.356 172.4 273.017C172.4 272.678 172.58 272.4 172.8 272.4C173.02 272.4 173.2 272.128 173.2 271.795C173.2 271.207 173.367 270.782 174.338 268.905C174.592 268.413 174.8 267.648 174.8 267.205C174.8 266.762 174.98 266.4 175.2 266.4C175.42 266.4 175.6 265.871 175.6 265.224C175.6 264.577 175.78 263.936 176 263.8C176.22 263.664 176.4 262.789 176.4 261.856C176.4 260.923 176.589 259.971 176.82 259.74C177.366 259.194 177.072 247.801 176.434 244.8C176.177 243.59 175.864 242.015 175.74 241.3C175.615 240.585 175.352 240 175.156 240C174.96 240 174.8 239.638 174.8 239.195C174.8 238.752 174.636 238.077 174.435 237.695C174.234 237.313 173.603 236.01 173.033 234.8C171.909 232.414 170.742 230.318 170.36 230C170.228 229.89 169.898 229.38 169.628 228.866C167.908 225.602 160.163 218.249 156.42 216.325C155.859 216.037 155.31 215.707 155.2 215.593C155.09 215.478 153.74 214.784 152.2 214.05C150.66 213.316 149.087 212.555 148.705 212.358C148.323 212.161 147.558 212 147.005 212C146.452 212 146 211.82 146 211.6C146 211.38 145.406 211.2 144.68 211.2C143.954 211.2 143.189 211.036 142.98 210.835C142.196 210.082 130.559 209.343 129.6 209.986ZM138.2 224.4C138.336 224.62 139.146 224.8 140 224.8C140.854 224.8 141.664 224.98 141.8 225.2C141.936 225.42 142.399 225.6 142.829 225.6C143.259 225.6 143.968 225.78 144.405 226C144.842 226.22 145.558 226.58 145.995 226.8C146.432 227.02 147.062 227.2 147.395 227.2C147.728 227.2 148 227.38 148 227.6C148 227.82 148.193 228 148.428 228C150.334 228 158.8 236.466 158.8 238.372C158.8 238.607 158.98 238.8 159.2 238.8C159.42 238.8 159.6 239.16 159.6 239.6C159.6 240.04 159.78 240.4 160 240.4C160.22 240.4 160.4 240.76 160.4 241.2C160.4 241.64 160.58 242 160.8 242C161.02 242 161.2 242.439 161.2 242.976C161.2 243.513 161.38 244.064 161.6 244.2C161.82 244.336 162 244.966 162 245.6C162 246.234 162.18 246.864 162.4 247C162.638 247.147 162.8 249.663 162.8 253.2C162.8 256.737 162.638 259.253 162.4 259.4C162.18 259.536 162 260.256 162 261C162 261.744 161.82 262.464 161.6 262.6C161.38 262.736 161.2 263.197 161.2 263.624C161.2 264.051 161.02 264.4 160.8 264.4C160.58 264.4 160.4 264.634 160.4 264.92C160.4 265.656 159.459 267.593 159.1 267.597C158.935 267.599 158.8 267.793 158.8 268.028C158.8 269.911 150.311 278.4 148.428 278.4C148.193 278.4 148 278.58 148 278.8C148 279.02 147.64 279.2 147.2 279.2C146.76 279.2 146.4 279.38 146.4 279.6C146.4 279.82 146.051 280 145.624 280C145.197 280 144.736 280.18 144.6 280.4C144.464 280.62 143.913 280.8 143.376 280.8C142.839 280.8 142.4 280.98 142.4 281.2C142.4 281.42 141.691 281.6 140.824 281.6C139.957 281.6 139.136 281.78 139 282C138.857 282.232 136.67 282.4 133.8 282.4C130.93 282.4 128.743 282.232 128.6 282C128.464 281.78 127.744 281.6 127 281.6C126.256 281.6 125.536 281.42 125.4 281.2C125.264 280.98 124.713 280.8 124.176 280.8C123.639 280.8 123.2 280.62 123.2 280.4C123.2 280.18 122.947 280 122.638 280C121.972 280 118.659 278.332 118.467 277.9C118.393 277.735 118.114 277.6 117.845 277.6C117.576 277.6 116.712 277.015 115.924 276.3C115.137 275.585 114.055 274.64 113.521 274.2C112.987 273.76 111.931 272.59 111.175 271.6C110.419 270.61 109.696 269.71 109.568 269.6C109.44 269.49 109.081 268.815 108.77 268.1C108.459 267.385 108.069 266.8 107.902 266.8C107.736 266.8 107.6 266.44 107.6 266C107.6 265.56 107.42 265.2 107.2 265.2C106.98 265.2 106.8 264.75 106.8 264.2C106.8 263.65 106.62 263.2 106.4 263.2C106.18 263.2 106 262.671 106 262.024C106 261.377 105.82 260.736 105.6 260.6C105.38 260.464 105.2 259.474 105.2 258.4C105.2 257.326 105.02 256.336 104.8 256.2C104.58 256.064 104.4 254.714 104.4 253.2C104.4 251.686 104.58 250.336 104.8 250.2C105.02 250.064 105.2 249.074 105.2 248C105.2 246.926 105.38 245.936 105.6 245.8C105.82 245.664 106 245.124 106 244.6C106 244.076 106.18 243.536 106.4 243.4C106.62 243.264 106.8 242.713 106.8 242.176C106.8 241.639 106.98 241.2 107.2 241.2C107.42 241.2 107.6 240.84 107.6 240.4C107.6 239.96 107.78 239.6 108 239.6C108.22 239.6 108.4 239.407 108.4 239.172C108.4 236.705 118.434 227.2 121.038 227.2C121.347 227.2 121.6 227.02 121.6 226.8C121.6 226.58 121.949 226.4 122.376 226.4C122.803 226.4 123.264 226.22 123.4 226C123.536 225.78 124.076 225.6 124.6 225.6C125.124 225.6 125.664 225.42 125.8 225.2C125.936 224.98 126.746 224.8 127.6 224.8C128.454 224.8 129.264 224.62 129.4 224.4C129.539 224.175 131.463 224 133.8 224C136.137 224 138.061 224.175 138.2 224.4ZM276.616 249.173C276.471 249.408 275.701 249.6 274.905 249.6C270.502 249.6 262.661 253.71 257.773 258.58C254.56 261.782 250.4 268.536 250.4 270.551C250.4 270.882 250.22 271.264 250 271.4C249.78 271.536 249.6 272.267 249.6 273.024C249.6 273.781 249.42 274.4 249.2 274.4C248.95 274.4 248.8 276.792 248.8 280.776C248.8 284.596 248.96 287.252 249.2 287.4C249.42 287.536 249.6 288.179 249.6 288.829C249.6 289.965 249.716 290.318 250.738 292.295C250.992 292.787 251.2 293.462 251.2 293.795C251.2 294.128 251.38 294.4 251.6 294.4C251.82 294.4 252 294.686 252 295.035C252 296.907 261.377 307.6 263.019 307.6C263.302 307.6 263.593 307.736 263.667 307.902C264.132 308.954 271.007 311.603 275.351 312.403C281.466 313.53 294.929 311.12 295.933 308.719C296.007 308.543 296.244 308.4 296.461 308.4C297.909 308.4 306.8 300.159 306.8 298.817C306.8 298.588 306.98 298.4 307.2 298.4C307.42 298.4 307.6 298.145 307.6 297.833C307.6 297.522 307.735 297.207 307.9 297.133C309.062 296.617 311.534 289.336 312.119 284.704C312.783 279.449 311.085 268.323 309.518 267.667C309.343 267.593 309.2 267.188 309.2 266.767C309.2 266.345 309.02 266 308.8 266C308.58 266 308.4 265.807 308.4 265.572C308.4 262.698 296.814 252.377 292.412 251.33C291.855 251.198 291.22 250.959 291 250.799C290.589 250.499 289.67 250.257 286.2 249.534C283.173 248.903 276.929 248.668 276.616 249.173ZM284.213 263.387C289.946 264.88 293.996 268.085 296.363 273C296.893 274.1 297.478 275.313 297.663 275.695C298.149 276.696 298.092 286 297.6 286C297.38 286 297.2 286.343 297.2 286.762C297.2 287.669 295.592 290.8 295.126 290.8C294.947 290.8 294.794 291.025 294.787 291.3C294.77 291.985 293.287 293.607 291.6 294.784C290.83 295.322 290.11 295.86 290 295.981C289.569 296.453 287.98 297.2 287.405 297.2C287.072 297.2 286.8 297.38 286.8 297.6C286.8 297.82 286.271 298 285.624 298C284.977 298 284.336 298.18 284.2 298.4C283.614 299.348 276.686 298.753 274.305 297.551C273.923 297.358 273.338 297.2 273.005 297.2C272.672 297.2 272.4 297.02 272.4 296.8C272.4 296.58 272.132 296.4 271.805 296.4C270.472 296.4 266.06 292.024 264.657 289.311C262.841 285.799 262.095 278.589 263.251 275.719C267.06 266.26 275.709 261.172 284.213 263.387Z" fill="white"/>
</svg>
